{"accessors":{"accessor_21":{"bufferView":"bufferView_29","byteOffset":0,"byteStride":0,"componentType":5123,"count":3624,"type":"SCALAR"},"accessor_23":{"bufferView":"bufferView_30","byteOffset":0,"byteStride":12,"componentType":5126,"count":2254,"max":[5.68392,1.10662,3.43216],"min":[-5.684,-1.12098,-3.49017],"type":"VEC3"},"accessor_25":{"bufferView":"bufferView_30","byteOffset":27048,"byteStride":12,"componentType":5126,"count":2254,"max":[1,1,1],"min":[-1,-1,-1],"type":"VEC3"},"accessor_27":{"bufferView":"bufferView_30","byteOffset":54096,"byteStride":8,"componentType":5126,"count":2254,"max":[0.999839,0.999061],"min":[0.00055133,0.00112599],"type":"VEC2"}},"animations":{},"asset":{"generator":"collada2gltf@","premultipliedAlpha":true,"profile":"WebGL 1.0.2","version":0.8},"bufferViews":{"bufferView_29":{"buffer":"model","byteLength":7248,"byteOffset":0,"target":34963},"bufferView_30":{"buffer":"model","byteLength":72128,"byteOffset":7248,"target":34962}},"buffers":{"model":{"byteLength":79376,"type":"arraybuffer","uri":"data:application/octet-stream;base64,"}},"materials":{"Material-effect":{"instanceTechnique":{"technique":"technique0","values":{"ambient":[0,0,0,1],"diffuse":[0.64,0.64,0.64,1],"emission":[0,0,0,1],"shininess":50,"specular":[0.5,0.5,0.5,1]}},"name":"Material"}},"meshes":{"Cylinder-mesh":{"name":"Cylinder","primitives":[{"attributes":{"NORMAL":"accessor_25","POSITION":"accessor_23","TEXCOORD_0":"accessor_27"},"indices":"accessor_21","material":"Material-effect","primitive":4}]}},"nodes":{"Cylinder":{"children":[],"matrix":[1.1391,0,0,0,0,8.59995e-8,1.1391,0,0,-0.766813,5.78928e-8,0,-0.699742,-1.09511,0.00522709,1],"meshes":["Cylinder-mesh"],"name":"Cylinder"},"node_1":{"children":["Cylinder"],"matrix":[1,0,0,0,0,0,-1,0,0,1,0,0,0,0,0,1],"name":"Y_UP_Transform"}},"programs":{"program_0":{"attributes":["a_normal","a_position"],"fragmentShader":"model0FS","vertexShader":"model0VS"}},"scene":"defaultScene","scenes":{"defaultScene":{"nodes":["node_1"]}},"shaders":{"model0FS":{"type":35632,"uri":"data:text/plain;base64,"},"model0VS":{"type":35633,"uri":"data:text/plain;base64,"}},"skins":{},"techniques":{"technique0":{"parameters":{"ambient":{"type":35666},"diffuse":{"type":35666},"emission":{"type":35666},"modelViewMatrix":{"semantic":"MODELVIEW","type":35676},"normal":{"semantic":"NORMAL","type":35665},"normalMatrix":{"semantic":"MODELVIEWINVERSETRANSPOSE","type":35675},"position":{"semantic":"POSITION","type":35665},"projectionMatrix":{"semantic":"PROJECTION","type":35676},"shininess":{"type":5126},"specular":{"type":35666}},"pass":"defaultPass","passes":{"defaultPass":{"details":{"commonProfile":{"extras":{"doubleSided":true},"lightingModel":"Phong","parameters":["ambient","diffuse","emission","modelViewMatrix","normalMatrix","projectionMatrix","shininess","specular"]},"type":"COLLADA-1.4.1/commonProfile"},"instanceProgram":{"attributes":{"a_normal":"normal","a_position":"position"},"program":"program_0","uniforms":{"u_ambient":"ambient","u_diffuse":"diffuse","u_emission":"emission","u_modelViewMatrix":"modelViewMatrix","u_normalMatrix":"normalMatrix","u_projectionMatrix":"projectionMatrix","u_shininess":"shininess","u_specular":"specular"}},"states":{"enable":[2929]}}}}}}